<svg xmlns="http://www.w3.org/2000/svg" width="1200" height="630" viewBox="0 0 1200 630">
  <defs>
    <linearGradient id="g" x1="0" y1="0" x2="1" y2="1">
      <stop offset="0" stop-color="#1b64d6"/><stop offset=".55" stop-color="#2b8de0"/><stop offset="1" stop-color="#0ea5e9"/>
    </linearGradient>
    <pattern id="orn" width="54" height="54" patternUnits="userSpaceOnUse">
      <g fill="none" stroke="#ffffff" stroke-width="1.4" opacity="0.16">
        <rect x="16" y="16" width="22" height="22"/>
        <rect x="16" y="16" width="22" height="22" transform="rotate(45 27 27)"/>
        <circle cx="27" cy="27" r="3"/>
      </g>
    </pattern>
  </defs>
  <rect width="1200" height="630" fill="url(#g)"/>
  <rect width="1200" height="630" fill="url(#orn)"/>
  <g transform="translate(90,235)">
    <rect x="0" y="0" width="120" height="120" rx="28" fill="#ffffff"/>
    <path d="M60 22c-18 0-30 12-30 30 0 22 30 46 30 46s30-24 30-46c0-18-12-30-30-30z" fill="#1f6fe5"/>
    <circle cx="60" cy="52" r="12" fill="#ffffff"/>
  </g>
  <text x="240" y="300" font-family="-apple-system,Segoe UI,Roboto,sans-serif" font-size="96" font-weight="800" fill="#ffffff">UZGID</text>
  <text x="242" y="372" font-family="-apple-system,Segoe UI,Roboto,sans-serif" font-size="38" font-weight="500" fill="#eaf3ff">O'zbekiston bir qarashda</text>
  <text x="242" y="430" font-family="-apple-system,Segoe UI,Roboto,sans-serif" font-size="27" fill="#d3e6ff">Ob-havo · Valyuta · Namoz · Xaritalar · Turizm · Yangiliklar</text>
</svg>
