<svg xmlns="http://www.w3.org/2000/svg" width="1200" height="1200" viewBox="0 0 1200 1200">
  <defs>
    <linearGradient id="g" x1="0" y1="0" x2="1" y2="1">
      <stop offset="0" stop-color="#1b64d6"/><stop offset=".55" stop-color="#2b8de0"/><stop offset="1" stop-color="#0ea5e9"/>
    </linearGradient>
    <pattern id="orn" width="60" height="60" patternUnits="userSpaceOnUse">
      <g fill="none" stroke="#ffffff" stroke-width="1.5" opacity="0.15">
        <rect x="18" y="18" width="24" height="24"/>
        <rect x="18" y="18" width="24" height="24" transform="rotate(45 30 30)"/>
        <circle cx="30" cy="30" r="3.2"/>
      </g>
    </pattern>
  </defs>
  <rect width="1200" height="1200" fill="url(#g)"/>
  <rect width="1200" height="1200" fill="url(#orn)"/>
  <g transform="translate(90,505)">
    <rect x="0" y="0" width="140" height="140" rx="34" fill="#ffffff"/>
    <path d="M70 26c-22 0-37 15-37 37 0 27 37 63 37 63s37-36 37-63c0-22-15-37-37-37z" fill="#1f6fe5"/>
    <circle cx="70" cy="63" r="15" fill="#ffffff"/>
  </g>
  <text x="260" y="588" font-family="-apple-system,Segoe UI,Roboto,sans-serif" font-size="112" font-weight="800" fill="#ffffff">UZGID</text>
  <text x="262" y="666" font-family="-apple-system,Segoe UI,Roboto,sans-serif" font-size="42" font-weight="500" fill="#eaf3ff">O'zbekiston bir qarashda</text>
  <text x="262" y="726" font-family="-apple-system,Segoe UI,Roboto,sans-serif" font-size="29" fill="#d3e6ff">Ob-havo · Valyuta · Namoz · Xaritalar · Turizm</text>
</svg>
